<svg xmlns="http://www.w3.org/2000/svg" viewBox="0 0 24 24" fill="#1DA1F2" aria-hidden="true"><path d="M19 7.5c.01.18.01.36.01.54 0 5.5-4.18 11.84-11.84 11.84A11.8 11.8 0 0 1 2 18.9a8.62 8.62 0 0 0 6.35-1.78 4.18 4.18 0 0 1-3.9-2.9 4.14 4.14 0 0 0 1.88-.07 4.17 4.17 0 0 1-3.34-4.09v-.05a4.1 4.1 0 0 0 1.88.52 4.17 4.17 0 0 1-1.29-5.55 11.85 11.85 0 0 0 8.6 4.36 4.72 4.72 0 0 1-.1-.95 4.17 4.17 0 0 1 7.21-2.85 8.3 8.3 0 0 0 2.66-1.02 4.18 4.18 0 0 1-1.84 2.3A8.34 8.34 0 0 0 21 5.6a8.46 8.46 0 0 1-2.1 2z"/></svg>